<svg width="22" height="22" viewBox="0 0 22 22" fill="none" xmlns="http://www.w3.org/2000/svg">
<path fill-rule="evenodd" clip-rule="evenodd" d="M5.7197 4.66406V3.08006C5.7197 2.37994 5.99745 1.70832 6.49272 1.21411C6.98798 0.718849 7.65957 0.440063 8.3597 0.440063H13.6397C14.3398 0.440063 15.0104 0.718849 15.5056 1.21411C16.0009 1.70832 16.2797 2.37994 16.2797 3.08006V4.66406H18.9197C19.6198 4.66406 20.2904 4.94285 20.7856 5.43811C21.2809 5.93232 21.5597 6.60394 21.5597 7.30406V18.9201C21.5597 19.6202 21.2809 20.2918 20.7856 20.7871C20.2904 21.2823 19.6198 21.5601 18.9197 21.5601C15.3399 21.5601 6.65954 21.5601 3.0797 21.5601C2.37957 21.5601 1.70798 21.2823 1.21272 20.7871C0.717452 20.2918 0.439697 19.6202 0.439697 18.9201V7.30406C0.439697 6.60394 0.717452 5.93232 1.21272 5.43811C1.70798 4.94285 2.37957 4.66406 3.0797 4.66406H5.7197ZM2.5517 11.4098V18.9201C2.5517 19.0605 2.60661 19.1946 2.70587 19.2939C2.80513 19.3932 2.93925 19.4481 3.0797 19.4481H18.9197C19.0591 19.4481 19.1932 19.3932 19.2925 19.2939C19.3917 19.1946 19.4477 19.0605 19.4477 18.9201V11.4837L11.325 14.1174C11.1106 14.186 10.8793 14.186 10.665 14.1142L2.5517 11.4098ZM19.4477 9.26294V7.30406C19.4477 7.16467 19.3917 7.03056 19.2925 6.93129C19.1932 6.83203 19.0591 6.77606 18.9197 6.77606C15.3399 6.77606 6.65954 6.77606 3.0797 6.77606C2.93925 6.77606 2.80513 6.83203 2.70587 6.93129C2.60661 7.03056 2.5517 7.16467 2.5517 7.30406V9.18374L11.0039 12.0012L19.4477 9.26294ZM14.1677 4.66406V3.08006C14.1677 2.94067 14.1117 2.80656 14.0125 2.70729C13.9132 2.60803 13.7791 2.55206 13.6397 2.55206C12.1296 2.55206 9.86872 2.55206 8.3597 2.55206C8.21925 2.55206 8.08513 2.60803 7.98587 2.70729C7.88661 2.80656 7.8317 2.94067 7.8317 3.08006V4.66406H14.1677Z" fill="#303C6C"/>
</svg>
