<svg width="24" height="24" viewBox="0 0 24 24" fill="none" xmlns="http://www.w3.org/2000/svg">
<path fill-rule="evenodd" clip-rule="evenodd" d="M11.0912 0.0459387C9.75299 0.270657 8.33871 0.888234 6.77511 1.93057C6.24456 2.28426 5.44862 2.891 5.02602 3.26397L4.7868 3.47508L5.93343 5.3675L7.08006 7.25992L7.0802 7.85395C7.08057 9.56697 7.51167 10.7504 8.51962 11.8054L8.86565 12.1677L8.52412 12.2708C8.33623 12.3275 7.95031 12.4683 7.66648 12.5838C3.96852 14.0877 1.27237 17.5154 0.629647 21.53C0.526529 22.1742 0.453766 23.2756 0.488951 23.6599L0.520102 24H12.1924H23.8647L23.8965 23.7877C23.9593 23.3688 23.8347 21.9001 23.6618 21.021C23.3139 19.2529 22.6122 17.7073 21.4691 16.1907C21.0611 15.6494 19.855 14.4626 19.2707 14.0275C18.3222 13.3212 17.1629 12.7103 16.0625 12.3371L15.5449 12.1615L15.8643 11.8344C16.6068 11.0741 17.1073 10.0436 17.257 8.96713C17.2847 8.76816 17.3073 8.32618 17.3073 7.98498V7.36454L17.4987 7.17909C17.7472 6.93842 18.1579 6.31911 18.3063 5.96153C18.7226 4.95785 18.6493 3.69928 18.1239 2.83447C17.5311 1.85865 16.4563 1.29357 15.193 1.29357H14.7636L14.3898 0.941951C13.9815 0.557818 13.3983 0.231765 12.8739 0.0944948C12.4863 -0.00698041 11.5571 -0.032314 11.0912 0.0459387ZM12.6783 1.57046C13.1465 1.73475 13.4777 2.02651 13.8817 2.63062C13.9679 2.75964 14.0407 2.86895 14.0432 2.87355C14.0458 2.87814 14.1954 2.84999 14.3757 2.81096C14.8386 2.71085 15.6416 2.74843 16.007 2.88729C16.73 3.16202 17.1307 3.77359 17.1275 4.59726C17.1266 4.81753 17.0919 5.03432 17.0287 5.21456C16.929 5.49867 16.5682 6.07881 16.4912 6.07881C16.4677 6.07881 16.0333 5.74361 15.526 5.33396C15.0187 4.9243 14.5628 4.56447 14.5128 4.53431C14.4376 4.48885 13.8902 4.62771 11.3031 5.34859C8.86701 6.02735 8.1725 6.20501 8.13154 6.15997C8.05643 6.07731 6.70465 3.83228 6.70517 3.791C6.70573 3.74066 7.6328 3.10066 8.20492 2.7556C9.30862 2.08994 10.3068 1.66935 11.185 1.4999C11.63 1.41405 12.3264 1.44693 12.6783 1.57046ZM14.9896 6.77079L15.8608 7.46278L15.8369 8.14303C15.808 8.96675 15.7091 9.39174 15.4 10.0195C15.2182 10.3886 15.1115 10.5341 14.7778 10.8679C14.444 11.2016 14.2985 11.3083 13.9294 11.4901C13.3127 11.7937 12.8748 11.8962 12.1937 11.8962C10.7499 11.8962 9.55158 11.1757 8.95521 9.94923C8.71633 9.45789 8.58924 8.90895 8.55123 8.20435L8.52037 7.63228L8.6361 7.60324C8.69972 7.58729 9.94318 7.24031 11.3993 6.83225C12.8554 6.42419 14.0629 6.08777 14.0826 6.08458C14.1023 6.08139 14.5104 6.39018 14.9896 6.77079ZM14.2279 13.503C14.0999 13.7146 12.2257 16.2592 12.198 16.2592C12.1698 16.2592 10.6262 14.1697 10.2333 13.5999L10.1261 13.4443H12.1948C13.8374 13.4443 14.2561 13.4564 14.2279 13.503ZM9.59714 15.204C10.1444 15.9521 10.5937 16.5796 10.5954 16.5984C10.5972 16.6172 10.15 16.6383 9.60169 16.6453L8.60476 16.6579V18.8394V21.021L12.2059 21.033L15.807 21.045L15.7948 18.8515L15.7826 16.6579L14.7813 16.6345L13.78 16.611L14.7983 15.2116C15.9626 13.6114 15.7679 13.7444 16.479 14.063C17.6617 14.5929 18.6219 15.2736 19.586 16.2659C21.1873 17.9138 22.1513 19.9872 22.391 22.2994L22.4166 22.5457H12.2009H1.98518L2.02239 22.1608C2.19301 20.3957 2.89968 18.6611 4.09139 17.0822C4.46089 16.5927 5.4489 15.6061 5.9438 15.2325C6.60702 14.7317 7.2854 14.3394 8.11217 13.9784C8.30569 13.8939 8.49508 13.829 8.53303 13.8343C8.57099 13.8395 9.04979 14.4559 9.59714 15.204ZM14.3412 18.8512L14.3283 19.5666H12.1937H10.0591L10.0462 18.8512L10.0332 18.1357H12.1937H14.3542L14.3412 18.8512Z" fill="#303C6C"/>
</svg>
