<svg width="639" height="911" viewBox="0 0 639 911" fill="none" xmlns="http://www.w3.org/2000/svg">
<path d="M320.276 646.405C201.419 548.282 98.5061 338.903 216.838 231.237C326.551 131.413 378.441 252.015 503.788 191.603C629.136 131.19 574.185 -67.7264 716.346 -107.3C798.86 -130.27 897.17 -79.9197 946.804 25.0642C996.437 130.048 997.394 289.666 885.199 485.231C779.219 669.965 655.249 724.509 549.145 725.745C443.04 726.981 354.8 674.907 320.276 646.405Z" stroke="#303C6C" stroke-width="2.10293" stroke-miterlimit="10"/>
<path d="M870.651 484.281C773.692 653.872 660.044 704.743 562.37 706.441C465.336 707.966 384.329 660.918 351.754 634.614C241.151 544.727 145.122 351.648 251.253 249.745C349.248 155.652 397.529 261.471 512.487 204.991C515.754 203.372 518.894 201.655 521.914 199.847C603.74 150.916 596.891 34.2808 652.808 -29.673C667.988 -47.0337 687.72 -60.6109 714.981 -67.8335C793.396 -88.6085 884.129 -41.2272 929.435 56.1215C974.859 154.002 974.316 302.592 870.651 484.281Z" stroke="#303C6C" stroke-width="2.10293" stroke-miterlimit="10"/>
<path d="M856.103 483.331C768.165 637.779 664.837 684.976 575.593 687.137C487.632 688.952 413.784 647.033 383.234 622.823C280.627 541.515 191.732 364.425 285.669 268.251C371.945 179.919 416.806 271.305 521.186 218.378C524.194 216.852 527.08 215.221 529.866 213.52C605.159 167.671 602.438 62.5795 655.498 5.61526C669.987 -9.93901 688.488 -22.091 713.618 -28.3674C787.947 -46.9312 871.088 -2.53528 912.067 87.1792C953.282 177.955 951.238 315.517 856.103 483.331Z" stroke="#303C6C" stroke-width="2.10293" stroke-miterlimit="10"/>
<path d="M841.555 482.382C762.637 621.687 669.644 665.443 588.817 667.833C509.94 670.165 443.282 633.091 414.712 611.033C320.259 538.108 238.337 377.246 320.083 286.759C394.641 204.229 435.981 280.92 529.884 231.765C532.631 230.328 535.265 228.786 537.817 227.193C606.578 184.426 608.005 90.8835 658.187 40.9044C671.989 27.1575 689.261 16.4429 712.254 11.099C782.514 -5.23018 858.046 36.1565 894.699 118.236C931.704 201.908 928.16 328.444 841.555 482.382Z" stroke="#303C6C" stroke-width="2.10293" stroke-miterlimit="10"/>
<path d="M827.006 481.431C757.364 605.749 674.442 645.743 602.04 648.528C532.24 651.212 472.786 619.143 446.19 599.241C359.913 534.678 284.941 390.123 354.497 305.265C417.344 228.593 455.146 290.506 538.582 245.152C541.066 243.801 543.449 242.352 545.767 240.866C607.994 201.181 613.6 119.194 660.874 76.1924C673.998 64.254 690.04 54.9935 710.888 50.5648C777.098 36.5004 845.188 74.7677 877.328 149.293C910.315 225.779 905.369 341.544 827.006 481.431Z" stroke="#303C6C" stroke-width="2.10293" stroke-miterlimit="10"/>
<path d="M812.457 480.482C751.878 589.68 679.243 626.037 615.264 629.224C554.542 632.25 502.297 605.19 477.668 587.45C399.597 531.217 331.558 403.081 388.912 323.772C440.069 253.033 474.301 300.057 547.281 258.539C549.503 257.275 551.636 255.917 553.719 254.539C609.413 217.935 619.232 147.521 663.564 111.481C676.02 101.354 690.829 93.5654 709.525 90.0311C771.705 78.276 832.177 113.45 859.96 180.35C888.77 249.722 882.346 354.501 812.457 480.482Z" stroke="#303C6C" stroke-width="2.10293" stroke-miterlimit="10"/>
<path d="M797.909 479.531C746.377 573.6 684.046 606.315 628.488 609.92C576.845 613.271 531.819 591.225 509.148 575.659C439.316 527.716 378.215 416.15 423.328 342.279C462.842 277.576 493.439 309.558 555.981 271.927C557.94 270.747 559.822 269.483 561.672 268.212C610.832 234.691 624.911 175.879 666.253 146.769C678.052 138.461 691.626 132.164 708.161 129.497C766.338 120.115 819.154 152.139 842.592 211.408C867.215 273.671 859.31 367.449 797.909 479.531Z" stroke="#303C6C" stroke-width="2.10293" stroke-miterlimit="10"/>
<path d="M783.361 478.582C740.851 557.506 688.851 586.572 641.712 590.616C599.149 594.267 561.354 577.244 540.626 563.869C479.081 524.155 421.38 427.351 457.743 360.786C488.778 303.972 512.546 318.993 564.679 285.314C566.376 284.217 568.007 283.049 569.624 281.885C612.251 251.445 630.643 204.285 668.943 182.057C680.101 175.582 692.432 170.795 706.798 168.963C760.997 162.051 806.114 190.837 825.224 242.465C845.642 297.63 836.252 380.383 783.361 478.582Z" stroke="#303C6C" stroke-width="2.10293" stroke-miterlimit="10"/>
<path d="M768.812 477.632C735.291 541.39 693.654 566.789 654.935 571.312C621.451 575.223 590.907 563.236 572.104 552.078C518.902 520.507 471.948 442.751 492.157 379.293C508.786 327.079 531.602 328.334 573.377 298.701C574.809 297.685 576.192 296.614 577.575 295.557C613.669 268.2 636.43 232.78 671.632 217.346C682.164 212.728 693.244 209.47 705.433 208.43C755.68 204.142 793.047 229.546 807.855 273.522C824.043 321.599 813.156 393.292 768.812 477.632Z" stroke="#303C6C" stroke-width="2.10293" stroke-miterlimit="10"/>
<path d="M754.264 476.682C729.672 525.24 698.449 546.925 668.159 552.008C643.745 556.105 620.485 549.177 603.583 540.287C558.788 516.726 519.376 456.234 526.573 397.8C532.216 351.983 550.564 337.542 582.076 312.088C583.24 311.148 584.378 310.179 585.527 309.23C615.087 284.955 642.255 261.416 674.321 252.634C684.24 249.918 694.057 248.199 704.07 247.895C750.377 246.492 779.939 268.267 790.487 304.579C802.396 345.583 789.982 406.158 754.264 476.682Z" stroke="#303C6C" stroke-width="2.10293" stroke-miterlimit="10"/>
</svg>
