<svg width="20" height="19" viewBox="0 0 20 19" fill="none" xmlns="http://www.w3.org/2000/svg">
<path d="M0.999756 19H18.9998C19.265 19 19.5193 18.8947 19.7069 18.7071C19.8944 18.5196 19.9998 18.2652 19.9998 18C19.9998 17.7348 19.8944 17.4804 19.7069 17.2929C19.5193 17.1054 19.265 17 18.9998 17H10.9998V15H17.9998C18.265 15 18.5193 14.8947 18.7069 14.7071C18.8944 14.5196 18.9998 14.2652 18.9998 14V1.00002C18.9998 0.7348 18.8944 0.480446 18.7069 0.29291C18.5193 0.105374 18.265 1.67143e-05 17.9998 1.67143e-05H11.9998C11.8681 -0.000744179 11.7377 0.0244809 11.6158 0.0742455C11.494 0.12401 11.3832 0.197335 11.2898 0.290017L9.58976 2.00002H1.99976C1.73454 2.00002 1.48019 2.10537 1.29265 2.29291C1.10511 2.48045 0.999756 2.7348 0.999756 3.00002V14C0.999756 14.2652 1.10511 14.5196 1.29265 14.7071C1.48019 14.8947 1.73454 15 1.99976 15H8.99976V17H0.999756C0.734539 17 0.480185 17.1054 0.292649 17.2929C0.105113 17.4804 -0.000244141 17.7348 -0.000244141 18C-0.000244141 18.2652 0.105113 18.5196 0.292649 18.7071C0.480185 18.8947 0.734539 19 0.999756 19V19ZM2.99976 13V4.00002H9.99976C10.1314 4.00078 10.2618 3.97555 10.3837 3.92579C10.5055 3.87602 10.6163 3.8027 10.7098 3.71002L12.4098 2.00002H16.9998V13H2.99976Z" fill="#303C6C"/>
</svg>
